HIERARCHY
ROOT hip
{
	OFFSET 0.000000 0.000000 0.000000 
	CHANNELS 6 Xposition Yposition Zposition Xrotation Zrotation Yrotation
	JOINT abdomen
	{
		OFFSET 0.000000 3.402643 0.000000 
		CHANNELS 3 Xrotation Zrotation Yrotation
		JOINT chest
		{
			OFFSET 0.000000 8.438565 -0.680529 
			CHANNELS 3 Xrotation Zrotation Yrotation
			JOINT neck
			{
				OFFSET 0.000000 10.207942 -0.272212 
				CHANNELS 3 Xrotation Zrotation Yrotation
				JOINT head
				{
					OFFSET 0.000000 3.130431 0.000000 
					CHANNELS 3 Xrotation Zrotation Yrotation
					End Site
					{
						OFFSET 0.000000 3.130435 0.000000 
					}
				}
			}
			JOINT lCollar
			{
				OFFSET 3.470700 6.669187 -0.816635 
				CHANNELS 3 Yrotation Zrotation Xrotation
				JOINT lShldr
				{
					OFFSET 3.198488 0.000000 0.000000 
					CHANNELS 3 Zrotation Yrotation Xrotation
					JOINT lForeArm
					{
						OFFSET 10.139888 0.000000 0.000000 
						CHANNELS 3 Yrotation Zrotation Xrotation
						JOINT lHand
						{
							OFFSET 8.370511 0.000000 0.000000 
							CHANNELS 3 Zrotation Yrotation Xrotation
							End Site
							{
								OFFSET 4.083176 0.000000 0.000000 
							}
						}
					}
				}
			}
			JOINT rCollar
			{
				OFFSET -3.470700 6.669187 -0.816635 
				CHANNELS 3 Yrotation Zrotation Xrotation
				JOINT rShldr
				{
					OFFSET -3.198488 0.000000 0.000000 
					CHANNELS 3 Zrotation Yrotation Xrotation
					JOINT rForeArm
					{
						OFFSET -10.139888 0.000000 0.000000 
						CHANNELS 3 Yrotation Zrotation Xrotation
						JOINT rHand
						{
							OFFSET -8.370511 0.000000 0.000000 
							CHANNELS 3 Zrotation Yrotation Xrotation
							End Site
							{
								OFFSET -4.083176 0.000000 0.000000 
							}
						}
					}
				}
			}
		}
	}
	JOINT lThigh
	{
		OFFSET 5.308129 -1.633274 1.361059 
		CHANNELS 3 Xrotation Zrotation Yrotation
		JOINT lShin
		{
			OFFSET -2.041588 -20.007561 0.000000 
			CHANNELS 3 Xrotation Zrotation Yrotation
			JOINT lFoot
			{
				OFFSET 0.000000 -19.190928 -1.224953 
				CHANNELS 3 Xrotation Yrotation Zrotation
				End Site
				{
					OFFSET 0.000000 -2.449906 4.627600 
				}
			}
		}
	}
	JOINT rThigh
	{
		OFFSET -5.308129 -1.633274 1.361059 
		CHANNELS 3 Xrotation Zrotation Yrotation
		JOINT rShin
		{
			OFFSET 2.041588 -20.007561 0.000000 
			CHANNELS 3 Xrotation Zrotation Yrotation
			JOINT rFoot
			{
				OFFSET 0.000000 -19.190928 -1.224953 
				CHANNELS 3 Xrotation Yrotation Zrotation
				End Site
				{
					OFFSET 0.000000 -2.449906 4.627600 
				}
			}
		}
	}
}
MOTION
Frames: 20
Frame Time: 0.016667
-0.150570 47.378765 0.290709 9.061340 -3.573111 1.428487 0.000000 0.000000 0.000000 3.422821 2.099558 -0.400480 -9.453730 3.246991 7.023084 12.478854 0.774052 7.783941 -3.039367 9.731335 0.474578 -79.187294 -17.517616 16.353567 -15.151142 -1.131116 2.479197 -10.922935 -5.838365 23.763912 2.675078 -9.928306 0.505225 84.727104 4.780596 -6.431981 5.467606 1.117935 2.284734 10.206036 9.226261 39.357414 -23.898981 8.296717 9.659887 36.108585 -3.175566 0.120559 -21.259289 0.161618 0.019918 -22.505100 -1.884242 -4.254426 33.147469 3.213702 14.006409 -19.508881 0.439570 -4.153859 
-0.130246 47.389648 0.338833 9.145626 -3.661380 1.144611 0.000000 0.000000 0.000000 3.157919 2.275335 -0.400463 -9.453094 3.371192 7.269077 12.123759 0.512407 8.105841 -3.039367 9.731335 0.474578 -79.720322 -17.545090 15.907554 -13.038064 -1.169423 2.473718 -10.811818 -6.361758 24.198278 2.675078 -9.928306 0.505225 84.621681 4.514670 -5.289108 6.347636 1.105232 2.290802 10.953785 10.226176 39.501019 -23.921347 8.396163 10.063134 36.270042 -3.239745 -0.183004 -21.443262 0.274668 0.179492 -22.554882 -1.786817 -3.843700 32.999413 3.262607 12.972717 -19.617468 0.240084 -3.445926 
-0.129742 47.395756 0.428197 9.144144 -3.661139 1.320657 0.000000 0.000000 0.000000 3.069640 2.275332 -0.410221 -9.446664 3.380213 7.356814 11.949549 0.512181 8.281615 -3.039367 9.731335 0.474578 -79.822662 -17.455164 15.292825 -11.902958 -1.196461 2.475226 -11.299643 -5.693513 26.864309 2.675078 -9.928306 0.505225 84.796242 4.345134 -4.944634 7.041873 1.095090 2.297045 10.906831 9.608130 40.911690 -23.629982 8.396989 10.172321 35.997028 -3.181157 -0.494714 -21.615913 0.445327 0.273720 -22.384485 -1.688903 -3.750014 33.092422 3.252285 13.160467 -19.758993 0.012866 -3.794291 
-0.129238 47.401855 0.517550 9.142662 -3.660863 1.496703 0.000000 0.000000 0.000000 2.981750 2.275332 -0.410221 -9.449970 3.389224 7.445127 11.775339 0.511950 8.457391 -3.039367 9.731335 0.474578 -79.927063 -17.367805 14.680697 -10.758732 -1.211672 2.465972 -11.753313 -5.000706 29.530388 2.675078 -9.928306 0.505225 84.970863 4.184131 -4.592367 7.746267 1.075776 2.303058 10.827938 8.993619 42.311325 -23.353994 8.385600 10.272620 35.723644 -3.132369 -0.800032 -21.797131 0.601841 0.382548 -22.222073 -1.591528 -3.676107 33.167149 3.242782 13.308362 -19.908016 -0.189528 -4.117901 
-0.113319 47.338367 0.649120 8.791499 -3.309683 1.310357 0.000000 0.000000 0.000000 3.250763 1.835905 -0.341934 -9.442755 3.540669 7.867238 11.863562 0.868470 8.838939 -3.039367 9.731335 0.474578 -79.450691 -16.902218 13.123086 -9.790383 -1.226895 2.463921 -11.300167 -5.147339 31.871496 2.675078 -9.928306 0.505225 85.044586 4.443082 -4.158322 7.482184 1.083421 2.294797 11.108777 8.828901 41.978283 -22.874668 8.101855 10.401429 36.000431 -3.136617 -0.481164 -21.956358 0.504158 0.311960 -21.906471 -2.040608 -3.755793 33.741608 3.336351 14.226704 -20.368885 0.216244 -4.375547 
-0.097400 47.274883 0.780670 8.437856 -2.968179 1.124068 0.000000 0.000000 0.000000 3.509197 1.396470 -0.263594 -9.433280 3.691608 8.289412 11.944995 1.214607 9.211246 -3.039367 9.731335 0.474578 -78.977356 -16.434851 11.582653 -8.822254 -1.240823 2.451464 -10.859722 -5.304808 34.217335 2.675078 -9.928306 0.505225 85.108749 4.710805 -3.714757 7.218102 1.091149 2.286475 11.385471 8.660734 41.643028 -22.419470 7.811064 10.519767 36.258724 -3.136108 -0.140183 -22.095770 0.392002 0.231923 -21.588057 -2.490098 -3.867329 34.327183 3.399649 15.186300 -20.824165 0.622723 -4.652526 
-0.085131 47.256447 0.857706 8.613715 -3.055654 1.456653 0.000000 0.000000 0.000000 3.333011 1.484359 -0.263583 -9.437620 3.673904 8.112745 12.125767 0.954597 9.112656 -3.039367 9.731335 0.474578 -78.944603 -15.461137 11.588820 -9.438466 -1.229687 2.456858 -10.156569 -5.030118 31.699516 2.675078 -9.928306 0.505225 84.854446 4.523341 -3.455528 7.658230 1.080701 2.293860 11.134801 8.126625 41.016396 -22.614719 7.820875 10.508221 36.451084 -3.146519 -0.234989 -22.310566 0.396400 0.235673 -21.907532 -2.303991 -3.470163 34.384098 3.369202 13.709561 -20.915953 0.566555 -4.294604 
-0.072866 47.238010 0.934731 8.798857 -3.143017 1.779488 0.000000 0.000000 0.000000 3.156825 1.572249 -0.263573 -9.442575 3.646389 7.946448 12.296017 0.684815 9.004659 -3.039367 9.731335 0.474578 -78.908936 -14.487329 11.599590 -10.054266 -1.228467 2.461935 -9.473573 -4.717563 29.200453 2.675078 -9.928306 0.505225 84.590363 4.338645 -3.185733 8.097970 1.080140 2.301088 10.898235 7.586618 40.397167 -22.801695 7.821723 10.507827 36.623924 -3.146302 -0.344662 -22.486572 0.390532 0.221546 -22.224384 -2.118945 -3.074327 34.433079 3.339808 12.212685 -21.027477 0.502385 -3.896571 
-0.127797 47.182514 1.039997 8.704138 -3.396519 1.926812 0.000000 0.000000 0.000000 3.251871 1.650361 -0.341936 -9.419631 4.061456 8.948832 11.945727 1.298677 9.914851 -3.039367 9.731335 0.474578 -79.204994 -14.315747 10.481016 -8.998106 -1.240109 2.459926 -8.480449 -5.016903 29.395102 2.675078 -9.928306 0.505225 84.302200 4.674371 -2.830623 7.570011 1.086940 2.294330 11.485853 8.149510 41.213623 -22.939939 8.242804 10.362620 37.339798 -3.099253 -0.458936 -22.837978 0.430367 0.169081 -22.077833 -1.875103 -3.010797 34.639362 3.347665 11.890924 -21.398205 0.431038 -3.853680 
-0.182723 47.127007 1.145262 8.618148 -3.659738 2.064446 0.000000 0.000000 0.000000 3.336866 1.738235 -0.420025 -9.402276 4.473093 9.943306 11.597265 1.918387 10.826598 -3.039367 9.731335 0.474578 -79.498077 -14.158503 9.360886 -7.941540 -1.261732 2.457027 -7.498078 -5.319776 29.589592 2.675078 -9.928306 0.505225 84.013657 5.013714 -2.479005 7.042448 1.084135 2.287357 12.092318 8.696213 42.043030 -23.074667 8.661472 10.218810 38.015965 -3.044641 -0.586983 -23.159185 0.524260 0.116880 -21.938816 -1.621180 -2.957981 34.807762 3.344176 11.552553 -21.730282 0.360993 -3.798808 
-0.189895 47.003429 1.223023 8.611423 -3.306773 2.738832 0.000000 0.000000 0.000000 3.419827 1.220677 -0.371010 -9.401063 4.464667 9.854927 11.512112 2.274532 10.662858 -3.039367 9.731335 0.474578 -78.715530 -13.936674 9.365804 -7.941540 -1.261732 2.457027 -8.660914 -5.117852 30.191725 2.675078 -9.928306 0.505225 84.024437 5.015938 -2.742583 6.689968 1.099373 2.289050 11.743307 8.597356 41.489185 -23.337027 8.221311 10.092071 38.613506 -3.103614 -1.338664 -23.697830 0.335579 0.316875 -22.355738 -1.874604 -2.841795 35.890808 3.160384 10.925458 -22.350128 0.367869 -3.699458 
-0.197058 46.879845 1.300795 8.622685 -2.963524 3.402975 0.000000 0.000000 0.000000 3.511843 0.693349 -0.312477 -9.400724 4.446472 9.776285 11.423145 2.621441 10.499515 -3.039367 9.731335 0.474578 -77.934196 -13.725225 9.366776 -7.941540 -1.261732 2.457027 -9.824656 -4.902550 30.798046 2.675078 -9.928306 0.505225 84.025551 5.017745 -3.007870 6.347636 1.105232 2.290802 11.392098 8.483611 40.944546 -23.577875 7.780055 9.977062 39.201435 -3.152915 -2.105822 -24.235292 0.183106 0.527719 -22.768393 -2.138689 -2.741685 36.998661 2.992306 10.359818 -22.958706 0.351258 -3.614402 
-0.110792 46.700642 1.389076 8.533519 -2.873440 4.116430 0.000000 0.000000 0.000000 3.687278 0.781239 -0.302706 -9.321317 4.438014 9.687908 11.159409 2.362332 10.477867 -3.052743 9.727183 0.553121 -78.239075 -13.126071 8.842807 -8.117601 -1.259508 2.455961 -9.723148 -5.072448 31.408714 2.680678 -9.924293 0.595076 83.759346 5.174169 -3.001188 5.731476 1.118685 2.283700 10.782979 8.286982 40.018200 -24.034531 7.524796 10.119053 40.335247 -3.019709 -2.976632 -24.856985 0.100036 0.988618 -23.136961 -2.567503 -3.060274 38.239029 2.802921 10.219614 -23.850107 0.414574 -3.310253 
-0.024539 46.521439 1.477336 8.445271 -2.792757 4.839649 0.000000 0.000000 0.000000 3.862743 0.869129 -0.292935 -9.233748 4.419912 9.599532 10.894091 2.093585 10.456436 -3.067895 9.732255 0.642924 -78.554451 -12.521571 8.317133 -8.293658 -1.257281 2.454871 -9.626427 -5.245083 32.019203 2.696154 -9.929935 0.684923 83.492905 5.339364 -3.005949 5.115712 1.122562 2.276312 10.170177 8.070782 39.100998 -24.487364 7.272954 10.224754 41.448406 -2.873497 -3.857948 -25.456583 0.061865 1.468785 -23.499247 -3.006860 -3.355020 39.488411 2.617338 10.038649 -24.750841 0.476903 -2.946754 
-0.035425 46.376720 1.476023 8.619150 -3.041236 5.759886 0.000000 0.000000 0.000000 4.037562 1.132800 -0.273384 -9.134978 4.568187 10.022728 11.063209 2.272613 10.916945 -3.067895 9.732255 0.642924 -78.924881 -12.011520 8.336210 -8.734016 -1.246820 2.452047 -9.506337 -5.948200 31.747557 2.696154 -9.929935 0.684923 82.937546 5.657029 -2.480458 4.763629 1.128112 2.277524 10.685866 8.370932 39.042557 -25.567635 7.310246 9.271605 42.527721 -2.844184 -3.342230 -25.794516 -0.093886 1.184171 -24.049351 -2.919660 -3.412223 40.324711 2.617676 9.077563 -25.364151 0.204402 -2.822411 
-0.046316 46.231983 1.474720 8.793036 -3.307580 6.670986 0.000000 0.000000 0.000000 4.212840 1.386706 -0.244069 -9.032194 4.725418 10.446781 11.244576 2.451014 11.368192 -3.067895 9.732255 0.642924 -79.303230 -11.500285 8.351249 -9.174167 -1.237895 2.458717 -9.382605 -6.637097 31.469212 2.696154 -9.929935 0.684923 82.381508 5.994879 -1.962700 4.411548 1.133655 2.278651 11.202264 8.659250 38.988956 -26.662153 7.320666 8.324070 43.627575 -2.814801 -2.799420 -26.179050 -0.254364 0.871731 -24.598801 -2.842103 -3.449387 41.161034 2.624597 8.119167 -25.976198 -0.062882 -2.708774 
-0.095206 46.014782 1.572323 8.884079 -3.301927 7.463481 0.000000 0.000000 0.000000 4.300689 1.396472 -0.244068 -9.139545 4.333003 9.618249 11.506895 2.006456 10.563430 -3.067895 9.732255 0.642924 -79.006729 -10.344476 8.890674 -10.494633 -1.218058 2.458506 -8.670596 -6.619786 29.931000 2.696154 -9.929935 0.684923 81.537460 6.474437 -0.812448 3.003043 1.165012 2.272545 10.805171 7.762470 39.321476 -27.214668 7.333328 8.237391 44.823738 -2.841529 -3.321809 -26.859682 -0.057568 1.097853 -25.017199 -2.675790 -2.884556 42.599861 2.526910 6.864030 -26.946077 0.292055 -2.052919 
-0.144090 45.797577 1.669906 8.964599 -3.305389 8.246222 0.000000 0.000000 0.000000 4.388580 1.396472 -0.244068 -9.244276 3.947477 8.781175 11.773437 1.568818 9.749891 -3.067895 9.732255 0.642924 -78.699310 -9.185433 9.431984 -11.814916 -1.200423 2.466469 -7.965839 -6.570151 28.394455 2.696154 -9.929935 0.684923 80.705177 6.970748 0.337192 1.594756 1.187290 2.274805 10.405044 6.853462 39.649017 -27.757631 7.341420 8.149889 46.060986 -2.841981 -3.818765 -27.577785 0.115991 1.312132 -25.435221 -2.500094 -2.313095 44.056900 2.455221 5.628094 -27.922768 0.596376 -1.443178 
-0.155353 45.606922 1.732196 9.148159 -3.391819 9.362118 0.000000 0.000000 0.000000 4.649015 1.738257 -0.302595 -9.256324 3.797151 8.368659 11.508024 0.606758 9.522082 -3.067895 9.732255 0.642924 -79.082458 -8.505033 9.174676 -13.038064 -1.169423 2.473718 -8.532813 -5.897027 28.344275 2.696154 -9.929935 0.684923 80.766922 8.107338 -0.640036 -0.333500 1.217801 2.353988 10.742284 7.055577 41.875832 -28.328537 6.972081 7.949343 46.893009 -2.708188 -4.782908 -27.970448 0.567069 1.754408 -25.997984 -2.655770 -2.567439 45.145115 2.360343 4.860829 -28.735422 0.473013 -1.205728 
-0.166631 45.416271 1.794487 9.316032 -3.485840 10.488352 0.000000 0.000000 0.000000 4.919110 2.099572 -0.341925 -9.266792 3.646389 7.946447 11.240516 -0.356592 9.287231 -3.067895 9.732255 0.642924 -79.474533 -7.819036 8.920152 -14.270569 -1.149154 2.479753 -9.100992 -5.225675 28.282722 2.696154 -9.929935 0.684923 80.807045 9.255952 -1.619123 -2.271743 1.242271 2.440020 11.096613 7.241010 44.098026 -28.889730 6.599159 7.771244 47.754478 -2.549713 -5.746597 -28.402636 1.027171 2.185573 -26.576469 -2.831488 -2.837115 46.231411 2.284943 4.129278 -29.527994 0.365878 -0.991975 
